<svg width="1840" height="519" viewBox="0 0 1840 519" fill="none" xmlns="http://www.w3.org/2000/svg">
<rect width="1840" height="519" fill="black"/>
<rect x="104.5" y="59.5" width="209" height="209" fill="white" stroke="#90CC40" stroke-width="19"/>
<rect x="304" y="69" width="190" height="190" fill="#FF4040"/>
<rect x="294.5" y="249.5" width="209" height="209" fill="#199090" stroke="white" stroke-width="19"/>
<rect x="114" y="259" width="190" height="190" fill="#E91C94"/>
<path d="M793.936 259C793.936 238.692 798.409 221.482 807.355 207.37C816.646 192.913 828.861 182.071 844.001 174.842C859.14 167.27 875.829 163.484 894.065 163.484C911.27 163.484 926.238 165.721 938.969 170.196C951.7 174.67 963.055 180.522 973.033 187.75C983.012 194.634 991.786 202.034 999.356 209.951V104.625C985.249 93.9547 969.593 85.3497 952.388 78.8098C935.528 72.2699 913.85 69 887.356 69C857.42 69 829.893 73.4746 804.775 82.4239C779.656 91.3732 758.151 104.281 740.258 121.147C722.366 138.013 708.43 158.149 698.452 181.554C688.817 204.616 684 230.431 684 259C684 287.569 688.817 313.556 698.452 336.962C708.43 360.024 722.366 379.987 740.258 396.853C758.151 413.719 779.656 426.627 804.775 435.576C829.893 444.525 857.42 449 887.356 449C913.85 449 935.528 445.73 952.388 439.19C969.593 432.306 985.249 423.701 999.356 413.375V308.049C991.786 315.966 983.012 323.538 973.033 330.766C963.055 337.65 951.7 343.33 938.969 347.804C926.238 352.279 911.27 354.516 894.065 354.516C875.829 354.516 859.14 350.902 844.001 343.674C828.861 336.101 816.646 325.259 807.355 311.147C798.409 296.69 793.936 279.308 793.936 259Z" fill="white"/>
<path d="M1166.62 280.168L1261.07 439.707H1377.72L1269.33 280.168H1166.62ZM1068.56 78.2935V439.707H1168.69V78.2935H1068.56ZM1132.56 162.967H1202.24C1212.9 162.967 1221.85 164.516 1229.07 167.614C1236.3 170.712 1241.81 175.359 1245.59 181.554C1249.72 187.406 1251.78 194.634 1251.78 203.239C1251.78 211.844 1249.72 219.245 1245.59 225.44C1241.81 231.636 1236.3 236.283 1229.07 239.38C1221.85 242.478 1212.9 244.027 1202.24 244.027H1132.56V319.924H1210.49C1243.53 319.924 1270.71 314.933 1292.04 304.951C1313.72 294.625 1329.72 280.341 1340.04 262.098C1350.71 243.511 1356.04 222.514 1356.04 199.109C1356.04 175.359 1350.71 154.534 1340.04 136.636C1329.72 118.393 1313.72 104.109 1292.04 93.7826C1270.71 83.4565 1243.53 78.2935 1210.49 78.2935H1132.56V162.967Z" fill="white"/>
<path d="M1513.9 280.168L1608.35 439.707H1725L1616.61 280.168H1513.9ZM1415.84 78.2935V439.707H1515.97V78.2935H1415.84ZM1479.84 162.967H1549.52C1560.18 162.967 1569.13 164.516 1576.35 167.614C1583.58 170.712 1589.09 175.359 1592.87 181.554C1597 187.406 1599.06 194.634 1599.06 203.239C1599.06 211.844 1597 219.245 1592.87 225.44C1589.09 231.636 1583.58 236.283 1576.35 239.38C1569.13 242.478 1560.18 244.027 1549.52 244.027H1479.84V319.924H1557.77C1590.81 319.924 1617.99 314.933 1639.32 304.951C1661 294.625 1677 280.341 1687.32 262.098C1697.99 243.511 1703.32 222.514 1703.32 199.109C1703.32 175.359 1697.99 154.534 1687.32 136.636C1677 118.393 1661 104.109 1639.32 93.7826C1617.99 83.4565 1590.81 78.2935 1557.77 78.2935H1479.84V162.967Z" fill="white"/>
</svg>
